<?xml version="1.0" encoding="utf-8"?>
<!-- Generator: Adobe Illustrator 15.1.0, SVG Export Plug-In . SVG Version: 6.00 Build 0)  -->
<!DOCTYPE svg PUBLIC "-//W3C//DTD SVG 1.1//EN" "http://www.w3.org/Graphics/SVG/1.1/DTD/svg11.dtd">
<svg version="1.1" xmlns="http://www.w3.org/2000/svg" xmlns:xlink="http://www.w3.org/1999/xlink" x="0px" y="0px"
	 width="1101.171px" height="780px" viewBox="0 0 1101.171 780" enable-background="new 0 0 1101.171 780" xml:space="preserve">
<g id="_x31_">
	<rect x="0.445" fill="#E4F5FD" width="1096.119" height="780"/>
	<path fill="#D7F0FC" d="M0.504,336.846c0,0,54.7-86.411,156.198-44.1c0,0,73.345-103.081,190.339-35.401
		c0,0,58.072-47.081,134.031,10.299c0,0,37.018-29.426,66.987,2.943c0,0,47.969-138.303,206.961-52.967
		c0,0,52.497-35.312,97.495,25.012c0,0,72.045-79.755,153.766,7.939c0,0,63.455-16.159,89.838,46.803v100.78L548.504,532.479
		L0.119,416.983L0.504,336.846z"/>
	<circle fill="#FFF200" cx="349.335" cy="263.71" r="86.898"/>
	<path fill="#FFFFFF" d="M0.504,359.387c0,0,54.7-88.092,156.198-44.958c0,0,73.345-105.087,190.339-36.09
		c0,0,58.072-47.998,134.031,10.499c0,0,37.018-29.998,66.987,3c0,0,47.969-140.993,206.961-53.997c0,0,52.497-35.998,97.495,25.499
		c0,0,72.045-81.307,153.766,8.094c0,0,63.455-16.473,89.838,47.713v102.741L548.504,558.826L0.119,441.084L0.504,359.387z"/>
	<path fill="#FFFFFF" d="M0.504,359.387c0,0,54.7-88.092,156.198-44.958c0,0,73.345-105.087,190.339-36.09
		c0,0,58.072-47.998,134.031,10.499c0,0,37.018-29.998,66.987,3c0,0,47.969-140.993,206.961-53.997c0,0,52.497-35.998,97.495,25.499
		c0,0,72.045-81.307,153.766,8.094c0,0,63.455-16.473,89.838,47.713v102.741L548.504,558.826L0.119,441.084L0.504,359.387z"/>
	<path fill="#004314" d="M39.556,421.894c0,0,326.827-11.304,508.948,13.19c182.121,24.494,548-44.25,548-44.25
		S938.012,617.322,929.012,612.822s-508.475-28.498-508.475-28.498L39.556,421.894z"/>
	<path fill="#004C1B" d="M39.556,427.894c0,0,326.827-11.304,508.948,13.19c182.121,24.494,548-44.25,548-44.25
		S938.012,623.322,929.012,618.822s-508.475-28.498-508.475-28.498L39.556,427.894z"/>
	<path fill="#005421" d="M4.667,376.248c0,0,323.042,40.974,602.763,116.572c191.291,51.699,336.245-99.131,493.741-114.852v397.365
		h-1096L4.667,376.248z"/>
	<path fill="#005B25" d="M0,380.915c0,0,323.042,40.974,602.763,116.571c191.292,51.7,336.246-99.131,493.741-114.851V780h-1096
		L0,380.915z"/>
	<path fill="#006B2F" d="M0.119,434.75c0,0,445.202,62.245,638.3,74.244c193.098,12,457.7-66.946,457.7-65.722
		c0,1.226,0.385,330.395,0.385,330.395h-1096L0.119,434.75z"/>
	<path fill="#007434" d="M0.119,441.084c0,0,445.202,62.244,638.3,74.244c193.098,11.999,457.7-66.947,457.7-65.723
		c0,1.226,0.385,330.395,0.385,330.395h-1096L0.119,441.084z"/>
	<path fill="#008E41" d="M0.119,773.667V523.994c0,0,620.926-71.997,1096-25.499v275.172H0.119z"/>
	<path fill="#009444" d="M0.119,780V530.327c0,0,620.926-71.997,1096-25.499V780H0.119z"/>
	<polygon fill="#009444" points="798.519,323.337 744.521,470.33 798.519,461.475 852.516,470.33 	"/>
	<polygon fill="#009444" points="909.34,370.52 871.6,473.258 909.34,467.068 947.08,473.258 	"/>
	<polygon fill="#009444" points="981.642,416.067 957.001,483.145 981.642,479.104 1006.281,483.145 	"/>
	<polygon fill="#009444" points="80.409,441.084 55.769,508.16 80.409,504.119 105.049,508.16 	"/>
	<polygon fill="#009444" points="148.888,409.418 115.769,499.575 148.888,494.145 182.007,499.575 	"/>
	<polygon fill="#009444" points="224.559,419.329 196.95,494.486 224.559,489.959 252.168,494.486 	"/>
	<rect x="788.037" y="446.939" fill="#009444" width="20.963" height="52.636"/>
	<polygon fill="#009444" points="733.473,473.33 692.427,361.592 651.38,473.33 681.945,468.317 681.945,499.575 702.908,499.575 
		702.908,468.317 	"/>
	<polygon fill="#005B25" points="129.27,383.172 88.224,271.435 47.177,383.172 77.742,378.16 77.742,409.418 98.705,409.418 
		98.705,378.16 	"/>
	<polygon fill="#005B25" points="196.973,394.213 169.022,318.127 141.072,394.213 161.885,390.8 161.885,412.084 176.16,412.084 
		176.16,390.8 	"/>
	<polygon fill="#005B25" points="276.438,407.209 244.088,319.148 211.739,407.209 235.828,403.26 235.828,427.894 252.349,427.894 
		252.349,403.26 	"/>
	<polygon fill="#005B25" points="1082.469,381.328 1061.4,323.976 1040.332,381.328 1056.02,378.755 1056.02,394.799 
		1066.779,394.799 1066.779,378.755 	"/>
	<polygon fill="#005B25" points="967.399,419.111 952.33,378.092 937.263,419.111 948.482,417.271 948.482,428.745 956.179,428.745 
		956.179,417.271 	"/>
	<polygon fill="#005B25" points="1035.85,394.921 1006.281,314.43 976.714,394.921 998.731,391.311 998.731,413.826 
		1013.832,413.826 1013.832,391.311 	"/>
	<rect x="141.072" y="473.169" fill="#009444" width="15.63" height="48.636"/>
	<rect x="216.744" y="473.169" fill="#009444" width="15.63" height="48.636"/>
	<rect x="72.594" y="483.842" fill="#009444" width="15.63" height="48.637"/>
	<rect x="898.858" y="446.939" fill="#009444" width="20.964" height="52.636"/>
	<rect x="974.16" y="464.159" fill="#009444" width="14.963" height="37.97"/>
	<path fill="#409F50" d="M0.445,580.457c-0.326,0.867,265.6-59.129,532.587,18.867s563.087,65.996,563.087,65.996V780h-1096
		L0.445,580.457z"/>
	<path fill="#3D994D" d="M0.445,571.327c-0.326,0.867,265.6-59.13,532.587,18.866s563.087,65.997,563.087,65.997v114.68h-1096
		L0.445,571.327z"/>
	<path fill="#409F50" d="M0.445,580.457c-0.326,0.867,265.6-59.129,532.587,18.867s563.087,65.996,563.087,65.996V780h-1096
		L0.445,580.457z"/>
	<path fill="#5CA15B" d="M1096.119,679.152c0,0-272.102-41.998-425.095,0C518.032,721.15,0,716.65,0,716.65v54.684h1096.119V679.152
		z"/>
	<path fill="#64AE63" d="M1096.119,687.819c0,0-272.102-41.998-425.095,0C518.032,729.817,0,725.317,0,725.317V780h1096.119V687.819
		z"/>
	<polygon fill="#64AE63" points="852.742,661.814 824.06,583.734 795.377,661.814 816.735,658.312 816.735,680.154 831.384,680.154 
		831.384,658.312 	"/>
	<polygon fill="#64AE63" points="931.857,652.357 893.117,546.896 854.377,652.357 883.225,647.626 883.225,677.127 903.01,677.127 
		903.01,647.626 	"/>
	<polygon fill="#409F50" points="375.386,555.513 336.646,450.053 297.905,555.513 326.752,550.782 326.752,580.284 
		346.538,580.284 346.538,550.782 	"/>
	<polygon fill="#409F50" points="454.284,563.556 423.665,480.203 393.045,563.556 415.846,559.816 415.846,583.135 
		431.483,583.135 431.483,559.816 	"/>
</g>
<g id="Designed_by_Vecteezy">
</g>
</svg>
